<?xml version="1.0" encoding="utf-8"?>
<!-- Generator: Adobe Illustrator 19.2.1, SVG Export Plug-In . SVG Version: 6.00 Build 0)  -->
<svg version="1.1" id="Layer_1" xmlns="http://www.w3.org/2000/svg" xmlns:xlink="http://www.w3.org/1999/xlink" x="0px" y="0px"
	 viewBox="0 0 674.1 682.8" style="enable-background:new 0 0 674.1 682.8;" xml:space="preserve">
<style type="text/css">
	.st0{fill:#FFFFFF;}
</style>
<path class="st0" d="M291.2,50.5v-11h-7.7l-6.5-11.3l4-6.7l-9.5-5.6l-1.3,2.2l0,0l-2.6,4.3h-14.9l-2.9-6.6l-9.5,5.6l2.9,6.7
	l-5.6,11.5H226l-6.5-11.3l4-6.7l-9.5-5.6l-3.9,6.5h-13.9l-3.9-6.6l-9.5,5.6l3.9,6.7l-6.6,11.4h-25.1l-25.5,44.1l22.5,39l-21.5,32.4
	l9.2,6.1l22.1-33.3h44.1l25.5-44.1L219,61.9l7-11.3h11.6l6.5,11.3l-2.7,4.5l0,0l-1.3,2.2l9.5,5.6L251,72l0,0l2.6-4.3h13.9l3.9,6.6
	l9.5-5.6l-3.9-6.7l6.6-11.5H291.2z M211.8,71.4L195.4,77l-17.7-10l-0.1-16.4h22.3L211.8,71.4z M199.8,116.8h-38.3l-19.1-33.1
	l19.1-33.1h5l0.1,15.4l-13,7.4l5.5,9.6l12.2-7l16,9.1l-3.2,15.1l10.8,2.3l3.1-14.7l19.5-6.5l1.5,2.5L199.8,116.8z M206.1,39.5h-13.2
	l3.5-6.1h13.4l6.7,11.6l-3.5,6.1L206.1,39.5z M247.2,45l5.7-11.6h14.4l6.7,11.6l-6.7,11.6h-13.4L247.2,45z"/>
<g>
	<polygon class="st0" points="214.5,245.4 198.1,260.1 198.1,317.4 209.1,317.4 209.1,265 222.7,252.8 	"/>
	<polygon class="st0" points="247.2,165.6 247.2,216.2 233.6,228.8 241.4,236.5 258.2,221.2 258.2,165.6 	"/>
	<polygon class="st0" points="225.8,226.3 237.5,215.9 209.1,216 209.1,205.7 242.7,205.7 242.7,195.3 209.1,195.3 209.1,185 
		242.7,185 242.7,174.7 209.1,174.7 209.1,165.6 198.1,165.6 198.1,221.2 236.3,255.3 229.9,255.3 218.3,265.6 247.2,265.6 
		247.2,275.8 214.6,275.8 214.6,286.2 247.2,286.2 247.2,297.1 213.8,297.1 213.8,307.4 247.2,307.4 247.2,317.4 258.2,317.4 
		258.2,260.1 220.4,226.3 	"/>
</g>
<g>
	<polygon class="st0" points="406.7,107.3 398.1,98.6 389.4,107.8 398.1,116.4 	"/>
	<polygon class="st0" points="420.5,83 411.8,74.4 403.2,83.5 411.8,92.1 	"/>
	<path class="st0" d="M432,213.3v-74.1h-10.4v7.5h-12.4v-14.3h4.9v-9.5h-39.9v9.5h5v14.3h-16.4v-35.2h4.9V102h-39.9v9.5h5v35.2
		h-12.3v-5.6h-10.4v72.2h-9v11h138.6v-11H432z M398.2,132.4V180l-4,2.5l-4-2.5v-47.5H398.2z M351.8,111.5V179l-4,2.5l-4-2.5v-67.5
		H351.8z M320.5,157.7h12.3v27.4l15,9.5l15-9.5v-27.4h16.4V186l15,9.5l15-9.5v-28.3h12.4v55.5H320.5V157.7z"/>
</g>
<g>
	<polygon class="st0" points="534.2,26.5 525.6,35.6 534.2,44.2 542.9,35.1 	"/>
	<path class="st0" d="M653.3,12l-20.7,21.8l20.9,20.9l20.7-21.8L653.3,12z M653.3,38.9l-5.3-5.3l5.5-5.8l5.3,5.3L653.3,38.9z"/>
	<path class="st0" d="M574.3,14.5L574.3,14.5l0-14.5h-11v11.5l-24.7-6.9l-54,9.5v42.5l7.9,1.4l-18.7,33l35,22.3L532.2,65l6.7,1.2
		l24.5-6.9v11.5h11V56.1l0,0V41.5h16.6V31.2h-16.6V14.5z M504.3,97.4l-15.7-10L504.1,60l16.8,3L504.3,97.4z M538.3,54.9l-42.6-7.5
		v-24l42.4-7.5l25.2,7v24.9L538.3,54.9z"/>
	<path class="st0" d="M590.9,16.2V57l32.5,12.9l-0.3-66.5L590.9,16.2z M601.9,49.5V23.7l10.2-4.1l0.1,34L601.9,49.5z"/>
</g>
<g>
	<polygon class="st0" points="560,295 551.3,286.4 542.7,295.5 551.3,304.1 	"/>
	<path class="st0" d="M504.8,329.6l86.7-0.3l-26.6-63.1l0.3-27.3h7v-10.7h-18.9v-8l10.9-32l-19.6-26.8l-37.4-8.1l8.9,58.8l26.2,7
		v9.1H524V239h5.9l0.3,27.4L504.8,329.6z M519.3,166.2l19.5,4.2l14.3,19.5l-3.9,11.3l-4-12.2l-7.4-9.9l-12.3,0.2l9.9,13.2l-8.3,3.1
		l11.3,4.9l2.6,8l-16.1-4.3L519.3,166.2z M554.2,239l-0.3,29.5l21.1,49.9l-28,0.1l-8.8-8.3l-8.3,8.3l-8.7,0l20.2-50.2L541,239H554.2
		z"/>
</g>
<g>
	<polygon class="st0" points="127.6,388.1 119,379.5 110.3,388.6 119,397.2 	"/>
	<path class="st0" d="M89.2,433.9h59.6v-30.1H89.2V433.9z M100.2,414.7h37.6v8.1h-37.6V414.7z"/>
	<path class="st0" d="M210.4,379.8l-10-4.6l-5.2,11.2h-10.7l-7-11.3l-9.3,5.8l10.3,16.5h5.1v22h-16.3v-15.1L149.9,364h-25.5v-9.6
		l15.3-16.1l-20.9-20.9l-20.7,21.8l15.3,15.3v9.5H88l-17.2,40.2v19.1H54.3v-22h5.1l10.3-16.5l-9.3-5.8l-7,11.3H42.5l-5.2-11.2
		l-10,4.6l8.1,17.5h7.8v33h27.5v17.9h15.8l9.9,35.3h44.9l9.9-35.3h15.8v-21.9h27.3v-33h7.8L210.4,379.8z M119.1,333.2l5.3,5.3
		l-5.5,5.8l-5.3-5.3L119.1,333.2z M98.4,453.8h15.4v22.8h-9L98.4,453.8z M133.1,476.6h-8.3v-22.8h14.7L133.1,476.6z M156.2,441.2
		H81.7v-34.8L95.2,375h47.5l13.5,31.5V441.2z"/>
</g>
<g>
	<rect x="332.4" y="351.5" class="st0" width="46.2" height="10.4"/>
	<rect x="332.4" y="372" class="st0" width="46.2" height="10.4"/>
	<rect x="332.4" y="391.7" class="st0" width="26.2" height="10.4"/>
	<polygon class="st0" points="422.4,414.7 435.5,401.6 408.5,401.6 	"/>
	<rect x="408.5" y="306.7" class="st0" width="27" height="10.4"/>
	<rect x="408.5" y="321.8" class="st0" width="10.4" height="74.7"/>
	<rect x="425.1" y="321.8" class="st0" width="10.4" height="74.7"/>
	<path class="st0" d="M313.4,422.2h84.3V304.1h-84.3V422.2z M324.4,315.1h62.3v96.1h-62.3V315.1z"/>
	<polygon class="st0" points="364.1,330 372.7,338.6 381.3,329.5 372.7,320.9 	"/>
</g>
<g>
	<path class="st0" d="M603.3,442.2v-39.7H503v39.7h44.4v11.4H503v39.7H548v11.5l-44.9,0.2v10.4h100.2v-10.4l-44.9-0.2v-11.5h44.9
		v-39.7h-45.4v-11.4H603.3z M592.3,482.2H514v-17.7h78.2V482.2z M514,413.5h78.2v17.7H514V413.5z"/>
	<rect x="525.3" y="418.1" class="st0" width="9.1" height="9.1"/>
	<rect x="548.1" y="418.1" class="st0" width="9.1" height="9.1"/>
	<rect x="570.9" y="418.1" class="st0" width="9.1" height="9.1"/>
	<rect x="525.3" y="468.8" class="st0" width="9.1" height="9.1"/>
	<rect x="548.1" y="468.8" class="st0" width="9.1" height="9.1"/>
	<rect x="570.9" y="468.8" class="st0" width="9.1" height="9.1"/>
</g>
<path class="st0" d="M339.4,561.6v-30.9l15.4-15.4l-21.8-20.7l-20.9,20.9l16.4,15.5v19.6h-39.6v-24.1h9v-30.1h-30.1v30.1h10.8v24.1
	h-40.9v-18.4l16.9-16.9l-21.8-20.7l-20.9,20.9l14.9,14.1v32h51.9v18.8h-44.9V620h100.2v-39.7h-44.9v-18.8H339.4z M333.2,510l5.8,5.5
	l-5.3,5.3l-5.8-5.5L333.2,510z M278.7,507.3h8.1v8.1h-8.1V507.3z M232.8,510l5.8,5.5l-5.3,5.3l-5.8-5.5L232.8,510z M322.7,609h-78.2
	v-17.7h78.2V609z"/>
<g>
	<path class="st0" d="M75.2,247.7h19.3v-11H75.2l-6.4-11l9.9-17.1l-9.5-5.5l-10,17.3H46.7l0.3-0.2l-10.1-17.5l-9.5,5.5l10.1,17.5
		l0.1,0L31.6,236H10.9v11h19.9l6.2,10.7l-0.1-0.1l-10.1,17.5l9.5,5.5l9.6-16.6h12.9l9.8,17l9.5-5.5l-9.4-16.3L75.2,247.7z
		 M40.7,242.2l6.2-10.8h12.5l6.2,10.8L59.4,253H46.9L40.7,242.2z"/>
	<rect x="47.2" y="183.2" class="st0" width="11" height="29.3"/>
	<rect x="9.9" y="204.4" transform="matrix(0.5 -0.866 0.866 0.5 -182.593 123.219)" class="st0" width="11" height="30.8"/>
	<rect x="0.8" y="257.6" transform="matrix(0.866 -0.5 0.5 0.866 -129.4698 43.0022)" class="st0" width="29.5" height="11"/>
	<rect x="47.2" y="271.1" class="st0" width="11" height="29.5"/>
	<rect x="84.8" y="249.3" transform="matrix(0.5 -0.866 0.866 0.5 -183.6492 210.3429)" class="st0" width="11" height="29.8"/>
	<rect x="76.2" y="214.9" transform="matrix(0.866 -0.5 0.5 0.866 -97.9166 75.3395)" class="st0" width="30.8" height="11"/>
	<rect x="103.4" y="236.8" class="st0" width="10.8" height="10.8"/>
	<rect x="123.7" y="236.8" class="st0" width="10.8" height="10.8"/>
	<rect x="142.7" y="236.8" class="st0" width="10.8" height="10.8"/>
</g>
<polygon class="st0" points="482,578.1 460.3,600.3 438.6,578.1 403.4,588.9 403.4,622.7 409.1,628.8 414,615.6 414,596.7 
	435.5,590.1 460.3,615.6 485.1,590.1 506.6,596.7 506.6,618.4 493.5,632.3 445,632.3 439.8,644.3 426.2,597.8 412.3,638.8 
	390.2,638.8 390.2,649.5 420,649.5 425.5,633.2 437.8,675.4 452,643 483.4,643 460.3,667.3 452,658.6 446.9,668.7 460.3,682.8 
	517.3,622.7 517.3,588.9 "/>
</svg>
