<svg id="Layer_1" data-name="Layer 1" xmlns="http://www.w3.org/2000/svg" viewBox="0 0 288 90"><defs><style>.cls-1{fill:#0d72b9;}.cls-2{fill:#242c60;}</style></defs><title>ASF Logo</title><path class="cls-1" d="M88.61,74.77A2.38,2.38,0,0,0,91,76c1,0,1.48-.37,1.48-1.13,0-.61-.32-.92-1.15-1.13a9,9,0,0,1-3-1A2.93,2.93,0,0,1,87,70c0-2.28,1.39-3.49,4-3.49,2,0,3.2.64,4,2l-2.09,1.32a2.13,2.13,0,0,0-1.94-1.07c-.8,0-1.23.37-1.23,1s.43,1.08,2,1.47a6.75,6.75,0,0,1,2.37.86,2.82,2.82,0,0,1,1.15,2.61,3.16,3.16,0,0,1-1,2.61,5.05,5.05,0,0,1-3.27.93,6.23,6.23,0,0,1-3.32-.81,3.19,3.19,0,0,1-1.19-1.31Z"/><path class="cls-1" d="M98.33,66.67h4.59a4,4,0,0,1,2.79.7,3.19,3.19,0,0,1,.94,2.47,2.71,2.71,0,0,1-.84,2.26,3.91,3.91,0,0,1,0,5.36,4.12,4.12,0,0,1-2.65.59H98.33Zm4.38,4.49c.85,0,1.13-.29,1.13-1.13s-.27-1.12-1.13-1.12h-1.58v2.25Zm.21,4.64c.85,0,1.12-.3,1.12-1.21s-.27-1.18-1.12-1.18h-1.79v2.39Z"/><path class="cls-1" d="M110,66.67h2.84V78.05H110Z"/><path class="cls-1" d="M119.58,78.05h-2.84V66.67h4.46c1.59,0,2.42.22,3,.83a3.38,3.38,0,0,1,.83,2.61c0,2-.54,2.88-2,3.32l2.45,4.62h-3.14l-2.07-4.4h-.77Zm1.34-6.55c1,0,1.34-.32,1.34-1.29s-.33-1.29-1.34-1.29h-1.39V71.5Z"/><path class="cls-1" d="M128.34,75.6h2.84v2.45h-2.84Z"/><path class="cls-1" d="M135.88,74.77A2.38,2.38,0,0,0,138.27,76c1,0,1.48-.37,1.48-1.13,0-.61-.32-.92-1.15-1.13a9,9,0,0,1-3-1A2.93,2.93,0,0,1,134.27,70c0-2.28,1.39-3.49,4-3.49,2,0,3.2.64,4,2l-2.09,1.32a2.13,2.13,0,0,0-1.94-1.07c-.8,0-1.23.37-1.23,1s.43,1.08,2,1.47a6.75,6.75,0,0,1,2.37.86,2.82,2.82,0,0,1,1.15,2.61,3.16,3.16,0,0,1-1,2.61,5.05,5.05,0,0,1-3.27.93,6.23,6.23,0,0,1-3.32-.81,3.19,3.19,0,0,1-1.19-1.31Z"/><path class="cls-1" d="M148,69h-2.93v-2.3h8.7V69h-2.93v9.08H148Z"/><path class="cls-1" d="M159.23,69H156.3v-2.3H165V69h-2.93v9.08h-2.84Z"/><path class="cls-1" d="M170.93,78.05h-2.84V66.67h4.46c1.59,0,2.42.22,3,.83a3.37,3.37,0,0,1,.83,2.61c0,2-.54,2.88-2,3.32l2.45,4.62h-3.14l-2.07-4.4h-.77Zm1.34-6.55c1,0,1.34-.32,1.34-1.29s-.33-1.29-1.34-1.29h-1.39V71.5Z"/><path class="cls-1" d="M91.56,24.81c-.31.72-.64,1.58-.89,2.2-.08.2-.13.28-.46.28H86c-.2,0-.23-.1-.13-.36,2.66-5.65,6.36-13.19,8.69-17.53,0-.08.59-.05.61,0,2.45,4.78,5.93,11.89,8.74,17.53.15.33.13.36-.1.36H99a.29.29,0,0,1-.31-.2c-.31-.69-.69-1.64-.95-2.27Zm4.83-3.32L94.57,17.6l-1.74,3.89Z"/><path class="cls-1" d="M117.27,16.45A3.77,3.77,0,0,1,121.13,14c2,0,4,.77,4,4.09v8.82c0,.31,0,.38-.23.38h-3.88c-.15,0-.23,0-.23-.28V19.7c0-1.23-.49-2-1.61-2a1.82,1.82,0,0,0-1.74,1.12v8.08c0,.31,0,.38-.23.38h-3.89c-.15,0-.23,0-.23-.28V19.7c0-1.41-.72-2-1.61-2a1.84,1.84,0,0,0-1.74,1.12V27c0,.23,0,.28-.18.28h-4c-.18,0-.2,0-.2-.36V14.69c0-.31,0-.31.18-.31h3.81c.2,0,.23,0,.23.31v1.76A3.85,3.85,0,0,1,113.44,14C115.48,14,116.73,14.72,117.27,16.45Z"/><path class="cls-1" d="M140,19.88a6.9,6.9,0,0,1-.15,1.74c-.05.26-.13.31-.51.31h-7.64a2.34,2.34,0,0,0,2.61,2.25,3.27,3.27,0,0,0,2.45-1.28c.08-.1.23-.05.36.13.54.74,1.25,1.76,1.76,2.56.15.23.08.41-.13.59a7.44,7.44,0,0,1-4.52,1.51c-3.88,0-6.72-2.56-6.72-6.9a6.37,6.37,0,0,1,6.72-6.72A5.6,5.6,0,0,1,140,19.88Zm-4-.2a2.08,2.08,0,0,0-2.17-2.17,2.18,2.18,0,0,0-2.15,2.17Z"/><path class="cls-1" d="M146.23,19.16V27c0,.23-.05.28-.2.28h-3.94c-.18,0-.2,0-.2-.36V14.69c0-.31,0-.31.2-.31h3.81c.18,0,.2,0,.2.31v1.25A3.41,3.41,0,0,1,149.17,14a3,3,0,0,1,3.27,3.09c-.54.54-2.35,2.43-2.66,2.71a1,1,0,0,1-.64.15c0-1.15-.49-1.76-1.41-1.76A1.76,1.76,0,0,0,146.23,19.16Z"/><path class="cls-1" d="M158.44,12.64c0,.23-.05.28-.23.28H154.3c-.18,0-.2-.18-.2-.33V9.94c0-.15,0-.33.18-.33h3.91c.2,0,.26,0,.26.33Zm0,14.36c0,.23-.05.28-.23.28H154.3c-.18,0-.2,0-.2-.36V14.69c0-.31,0-.31.18-.31h3.91c.2,0,.26,0,.26.31Z"/><path class="cls-1" d="M173.45,23.58a.32.32,0,0,1,.15.43,6.18,6.18,0,0,1-6,3.71c-4,0-6.85-2.61-6.85-6.75a6.64,6.64,0,0,1,6.8-7c2.81,0,5.09,1.28,6,3.81.08.2,0,.31-.15.38l-3.35,1.41c-.1,0-.15,0-.2-.15A2.65,2.65,0,0,0,165,20.93a2.55,2.55,0,0,0,2.66,2.66,2.42,2.42,0,0,0,2.2-1.25c.08-.18.15-.23.38-.13Z"/><path class="cls-1" d="M184.28,25.45c-.43,1.33-2,2-3.6,2-3.43,0-6-2.45-6-6.65,0-3.86,2.71-6.59,6-6.59a3.69,3.69,0,0,1,3.45,2V14.69c0-.23.05-.31.2-.31h3.94c.13,0,.18.1.18.23V26.93c0,.28-.08.36-.2.36h-3.63a.22.22,0,0,1-.26-.23ZM178.89,21a2.58,2.58,0,1,0,5.16-.05,2.5,2.5,0,0,0-2.56-2.68A2.53,2.53,0,0,0,178.89,21Z"/><path class="cls-1" d="M192.26,17.07c-.05.1-.36.15-.74.15s-.64-.2-.64-.36V10.22c0-.26.08-.26.18-.26h4.68c.15,0,.1.59.05.69C194.41,13.23,193.54,14.56,192.26,17.07Z"/><path class="cls-1" d="M195,24.38l2.79-1.07a.19.19,0,0,1,.23.1,2.24,2.24,0,0,0,2.07,1.38c1.15,0,1.66-.46,1.66-1s-.54-1-2.51-1.53c-2.43-.61-4.11-1.48-4.11-4S197.3,14,200.85,14c2.84,0,4.52,1.07,5,2.76,0,.15,0,.31-.13.36l-2.84,1c-.15.08-.18.08-.28-.08a2.27,2.27,0,0,0-1.94-1.15c-1,0-1.43.33-1.43.89s.59.77,2.79,1.2c2.56.54,4.32,1.61,4.32,4,0,2.86-2.15,4.75-5.88,4.75-3.25,0-4.78-1.18-5.6-3C194.84,24.58,194.84,24.43,195,24.38Z"/><path class="cls-2" d="M98.15,43.57c-.49-.08-.9-.15-1.24-.19-3.38-.56-4.77-1.28-4.77-3C92.13,39,93,38,95.59,38a4.69,4.69,0,0,1,4.21,3c.07.19.19.26.45.15l4.4-1.77c.23-.08.38-.23.26-.64-1-3.16-4.06-5.52-9.06-5.52-6.65,0-10,3.42-10,8.3,0,4.66,3.16,7.21,7.7,7.67l.9.11c3.46.41,4.55,1.39,4.55,2.93,0,1.73-1.2,2.52-3.79,2.52a4.86,4.86,0,0,1-4.55-3c-.08-.3-.08-.3-.41-.19l-4.62,1.88c-.26.11-.3.3-.15.71,1.28,3.68,4.47,5.75,9.58,5.75,5.9,0,10.67-2.56,10.67-8.34C105.74,46.8,103,44.24,98.15,43.57Z"/><path class="cls-2" d="M126.94,53.39l-11,.11V49.15h10.52c.34,0,.38-.08.38-.53V44c0-.45,0-.53-.38-.53H115.93V39.26l10.75.11c.3,0,.41-.19.41-.53V34.27c0-.45,0-.49-.41-.49h-17c-.38,0-.34,0-.34.38V58.73c0,.45,0,.53.41.53h17.17c.38,0,.41-.08.41-.53V53.88C127.35,53.39,127.35,53.39,126.94,53.39Z"/><path class="cls-2" d="M150.4,53.39l-11,.11V49.15h10.52c.34,0,.38-.08.38-.53V44c0-.45,0-.53-.38-.53H139.39V39.26l10.75.11c.3,0,.41-.19.41-.53V34.27c0-.45,0-.49-.41-.49h-17c-.38,0-.34,0-.34.38V58.73c0,.45,0,.53.41.53H150.4c.38,0,.41-.08.41-.53V53.88C150.82,53.39,150.82,53.39,150.4,53.39Z"/><path class="cls-2" d="M166.53,33.78H156.09c-.26,0-.3.08-.3.38V58.92c0,.38,0,.34.3.34h9.58c7.44,0,12.4-4.58,12.4-12.74S173.75,33.78,166.53,33.78Zm-.68,20.07H162.4V39.11h3.53c3.27,0,5.11,3.19,5.11,7.29C171,50.8,169.62,53.84,165.86,53.84Z"/><path class="cls-2" d="M206.66,33.78h-16.5c-.26,0-.3,0-.3.49V58.73c0,.56.08.53.3.53h6.13c.3,0,.34-.11.34-.53v-8.3l8.87.08c.34,0,.49-.08.53-.41A45.54,45.54,0,0,0,206,45c0-.3-.15-.45-.49-.45l-8.91.11V39.56l10,.08c.3,0,.26,0,.3-.38a33.12,33.12,0,0,0,0-5.11C206.92,33.85,207,33.78,206.66,33.78Z"/><path class="cls-2" d="M231.58,33.78h-6.16c-.23,0-.23,0-.23.26V50.8c0,2.56-2.14,3.57-3.95,3.57s-3.95-1.05-3.95-3.57V34.08c0-.3,0-.3-.26-.3h-6.31c-.19,0-.19,0-.19.23V49.64c0,6.2,3.46,10.26,10.63,10.26,7.48,0,10.6-3.83,10.6-9.88V34C231.76,33.78,231.76,33.78,231.58,33.78Z"/><path class="cls-2" d="M269.86,33.78H259.41c-.26,0-.3.08-.3.38V58.92c0,.38,0,.34.3.34H269c7.44,0,12.4-4.58,12.4-12.74S277.07,33.78,269.86,33.78Zm-.68,20.07h-3.46V39.11h3.53c3.27,0,5.11,3.19,5.11,7.29C274.37,50.8,272.94,53.84,269.18,53.84Z"/><path class="cls-2" d="M254.37,32.05c-2.72-2.3-4.11-3.35-6.36-5-.24-.15-.53-.2-.54.34s0,23,0,23c2.68,2.28,3.9,3.36,6.24,5.11.54.39.59.1.59-.49C254.43,46.37,254.37,32.05,254.37,32.05Z"/><path class="cls-2" d="M243.12,59.26c0-6.69,0-12.83,0-12.83-2.72-2.3-4.11-3.35-6.36-5-.24-.15-.53-.2-.54.34,0,.36,0,10.74,0,17.44Z"/><rect class="cls-2" x="68.3" y="9.34" width="1.09" height="50.37"/><path class="cls-2" d="M18.52,38.07c.94-.11,1.38-.22,1.38-1.25V29.4c-.88-1.08-1.13-1.13-1.33-1.13v-.39h3.3l5.43,6.68h0V29.82c0-.94-.19-1.46-1.46-1.55v-.39h3.36v.39c-1.13.14-1.22.5-1.22,1.25v9.22h-.44l-7-8.48h0v6.26c0,1.13.33,1.42,1.49,1.55v.39H18.52Z"/><path class="cls-2" d="M18.52,38.07c.94-.11,1.38-.22,1.38-1.25V29.4c-.88-1.08-1.13-1.13-1.33-1.13v-.39h3.3l5.43,6.68h0V29.82c0-.94-.19-1.46-1.46-1.55v-.39h3.36v.39c-1.13.14-1.22.5-1.22,1.25v9.22h-.44l-7-8.48h0v6.26c0,1.13.33,1.42,1.49,1.55v.39H18.52Z"/><path class="cls-2" d="M36.7,31c-.28-1.1-1.22-2.9-3.07-2.9A1.53,1.53,0,0,0,32,29.62c0,.84.3,1.19,1.61,1.85l2.3,1.14a3.24,3.24,0,0,1,1.72,2.88c0,1.38-1,3.27-3.88,3.27A11.8,11.8,0,0,1,31,38.23c-.33,0-.41.28-.47.53h-.45V34.89h.45c.31,1.58,1.22,3.35,3.21,3.35a1.75,1.75,0,0,0,2-1.75c0-1-.74-1.42-1.75-1.91l-1-.5c-2.68-1.28-2.68-2.63-2.68-3.35,0-1,.49-3.08,3.46-3.08a11.92,11.92,0,0,1,2.44.52c.36,0,.44-.23.52-.53h.47V31Z"/><path class="cls-2" d="M36.7,31c-.28-1.1-1.22-2.9-3.07-2.9A1.53,1.53,0,0,0,32,29.62c0,.84.3,1.19,1.61,1.85l2.3,1.14a3.24,3.24,0,0,1,1.72,2.88c0,1.38-1,3.27-3.88,3.27A11.8,11.8,0,0,1,31,38.23c-.33,0-.41.28-.47.53h-.45V34.89h.45c.31,1.58,1.22,3.35,3.21,3.35a1.75,1.75,0,0,0,2-1.75c0-1-.74-1.42-1.75-1.91l-1-.5c-2.68-1.28-2.68-2.63-2.68-3.35,0-1,.49-3.08,3.46-3.08a11.92,11.92,0,0,1,2.44.52c.36,0,.44-.23.52-.53h.47V31Z"/><path class="cls-2" d="M38.52,27.88h8.87V31H47c-.34-1.63-.77-2.61-3.46-2.61-.84,0-1.13.06-1.13.74v3.63c1.94,0,2.18-1.08,2.39-2.33h.39v5.29h-.39c-.17-1.28-.42-2.43-2.39-2.43V37c0,1,.63,1.06,1.72,1.11v.39H38.52v-.39c.89-.09,1.38-.14,1.38-1.11V29.38c0-1-.64-1.06-1.38-1.11Z"/><path class="cls-2" d="M38.52,27.88h8.87V31H47c-.34-1.63-.77-2.61-3.46-2.61-.84,0-1.13.06-1.13.74v3.63c1.94,0,2.18-1.08,2.39-2.33h.39v5.29h-.39c-.17-1.28-.42-2.43-2.39-2.43V37c0,1,.63,1.06,1.72,1.11v.39H38.52v-.39c.89-.09,1.38-.14,1.38-1.11V29.38c0-1-.64-1.06-1.38-1.11Z"/><path class="cls-2" d="M33,17A16.18,16.18,0,1,0,49.13,33.2,16.18,16.18,0,0,0,33,17m0,32A15.85,15.85,0,1,1,48.81,33.2,15.85,15.85,0,0,1,33,49"/><path class="cls-2" d="M33,17A16.18,16.18,0,1,0,49.13,33.2,16.18,16.18,0,0,0,33,17Zm0,32A15.85,15.85,0,1,1,48.81,33.2,15.85,15.85,0,0,1,33,49Z"/><path class="cls-2" d="M52.42,30.66c-.15-.39-.28-.77-.4-1.17A17.25,17.25,0,0,1,52,27.37a3.44,3.44,0,0,1,2.46-2.56c-.14-.35-.31-.77-.43-1.06a3.44,3.44,0,0,1-4-.36q-.37-.39-.73-.81a16.86,16.86,0,0,1-.95-2.08,3.44,3.44,0,0,1,1.29-3.3l-.8-.81a3.45,3.45,0,0,1-3.84,1.2l-.85-.4a16.62,16.62,0,0,1-1.74-1.61A3.44,3.44,0,0,1,42.29,12l-1.05-.44a3.45,3.45,0,0,1-3.09,2.58c-.49,0-1,0-1.47-.09a18.6,18.6,0,0,1-1.73-.68,3.44,3.44,0,0,1-1.42-3.25H32.38a3.45,3.45,0,0,1-1.87,3.56q-.51.19-1,.36a17,17,0,0,1-2.28.08,3.44,3.44,0,0,1-2.56-2.46l-1.05.43a3.45,3.45,0,0,1-.37,4q-.44.42-.91.81a17.12,17.12,0,0,1-2,.91A3.44,3.44,0,0,1,17,16.55l-.81.8a3.45,3.45,0,0,1,1.2,3.84c-.14.31-.29.62-.44.93a16.94,16.94,0,0,1-1.53,1.64,3.44,3.44,0,0,1-3.55.07l-.44,1.05A3.45,3.45,0,0,1,14,28c0,.43,0,.85-.07,1.28a17.66,17.66,0,0,1-.74,1.94,3.44,3.44,0,0,1-3.25,1.42c0,.38,0,.83,0,1.14a3.45,3.45,0,0,1,3.56,1.87q.2.52.37,1.05a16.93,16.93,0,0,1,.08,2.26,3.44,3.44,0,0,1-2.46,2.56l.43,1.06a3.45,3.45,0,0,1,4,.37q.41.43.8.89a17.28,17.28,0,0,1,.91,2,3.44,3.44,0,0,1-1.29,3.3l.8.81A3.45,3.45,0,0,1,21,48.75c.33.15.67.31,1,.48a17.12,17.12,0,0,1,1.62,1.52,3.44,3.44,0,0,1,.07,3.55l1.05.44a3.45,3.45,0,0,1,3.09-2.58c.41,0,.82,0,1.23.07a17.28,17.28,0,0,1,2,.77,3.44,3.44,0,0,1,1.42,3.25h1.14a3.45,3.45,0,0,1,1.87-3.56c.39-.15.78-.29,1.18-.41a17.6,17.6,0,0,1,2.11-.06,3.44,3.44,0,0,1,2.56,2.46l1.05-.43a3.45,3.45,0,0,1,.37-4q.44-.42.91-.81a17.6,17.6,0,0,1,1.92-.86,3.44,3.44,0,0,1,3.3,1.29l.81-.8a3.45,3.45,0,0,1-1.2-3.85c.19-.42.39-.83.6-1.23a17.73,17.73,0,0,1,1.41-1.49,3.44,3.44,0,0,1,3.55-.07l.44-1.05a3.45,3.45,0,0,1-2.58-3.09c0-.45,0-.9.08-1.35a17.84,17.84,0,0,1,.71-1.84A3.44,3.44,0,0,1,56,33.67c0-.38,0-.83,0-1.14a3.45,3.45,0,0,1-3.57-1.87m-1,.67-.19.25c-.39.38-1,.25-1.51.21l-1-.24q.07.65.08,1.31h0a.39.39,0,0,1,0,.43q0,.69-.07,1.37c.4-.1.8-.18,1.21-.26a1.35,1.35,0,0,1,1.2.25,4,4,0,0,1,.16,2.22s0,.09,0,.13a5.12,5.12,0,0,1-.53,1.5l-.27.16c-.5.2-1-.15-1.48-.38l-.84-.61q-.19.63-.42,1.24l0,0a.39.39,0,0,1-.2.4Q47.3,40,47,40.58c.41.06.82.14,1.23.23s.85.26,1,.69a4,4,0,0,1-.7,2.11l0,.05A5.56,5.56,0,0,1,47.33,45L47,45c-.54,0-.89-.53-1.22-.92l-.55-.9q-.41.5-.86,1l0,.07a.39.39,0,0,1-.38.3q-.48.47-1,.9c.36.22.72.45,1.07.7s.69.57.67,1a3.63,3.63,0,0,1-1.34,1.58,5.88,5.88,0,0,1-1.67.84l-.31-.08c-.5-.21-.62-.83-.77-1.31s-.11-.7-.17-1q-.57.31-1.17.57v.06a.39.39,0,0,1-.45.13q-.62.25-1.27.45c.25.34.49.69.72,1a1.35,1.35,0,0,1,.23,1.2,3.65,3.65,0,0,1-1.85,1,5.94,5.94,0,0,1-1.89.14l-.25-.19c-.38-.39-.25-1-.21-1.51.08-.34.16-.68.24-1Q34,49,33.32,49l0,0a.39.39,0,0,1-.46,0q-.68,0-1.35-.07c.1.41.19.82.26,1.24a1.35,1.35,0,0,1-.25,1.2,3.56,3.56,0,0,1-2,.18,6.27,6.27,0,0,1-1.9-.62l-.16-.27c-.2-.5.15-1,.38-1.47l.61-.84q-.63-.19-1.24-.43l0,0a.39.39,0,0,1-.41-.21q-.63-.27-1.22-.59c-.06.41-.14.83-.23,1.24s-.26.85-.69,1a3.22,3.22,0,0,1-1.77-.52,6.67,6.67,0,0,1-1.6-1.35l0-.31c0-.54.53-.89.92-1.22L23,45.5q-.51-.41-1-.87h0a.39.39,0,0,1-.29-.32q-.48-.49-.92-1-.32.53-.68,1c-.27.33-.57.69-1,.67a3.41,3.41,0,0,1-1.51-1.25,6.52,6.52,0,0,1-.95-1.84l.08-.31c.21-.5.83-.62,1.31-.77l1-.16q-.31-.58-.57-1.18h0a.39.39,0,0,1-.15-.4q-.26-.64-.46-1.3-.5.37-1,.7a1.35,1.35,0,0,1-1.2.23,3.2,3.2,0,0,1-.88-1.61A6.93,6.93,0,0,1,14.49,35l.19-.25c.39-.38,1-.25,1.51-.21l1,.23q-.06-.65-.07-1.31h0a.39.39,0,0,1,0-.44q0-.69.08-1.37c-.4.1-.81.19-1.22.26a1.35,1.35,0,0,1-1.2-.25,3.84,3.84,0,0,1-.16-2.16,5.67,5.67,0,0,1,.58-1.71l.27-.16c.5-.2,1,.15,1.47.38l.86.62q.19-.62.43-1.23l0-.06a.39.39,0,0,1,.25-.42q.27-.61.58-1.2c-.43-.06-.85-.14-1.27-.24s-.86-.26-1-.69a3.09,3.09,0,0,1,.49-1.7,6.73,6.73,0,0,1,1.37-1.62l.31,0c.54,0,.89.53,1.21.92l.55.9q.41-.51.86-1v-.06a.39.39,0,0,1,.36-.3q.48-.47,1-.9-.54-.33-1.06-.69c-.33-.27-.69-.57-.67-1a3.44,3.44,0,0,1,1.26-1.52,6.57,6.57,0,0,1,1.85-1l.31.08c.49.21.62.83.77,1.31s.11.69.16,1q.57-.31,1.17-.57V18.6a.39.39,0,0,1,.45-.14q.63-.25,1.28-.44c-.25-.34-.49-.69-.72-1a1.35,1.35,0,0,1-.23-1.2A3.15,3.15,0,0,1,29,14.89a7,7,0,0,1,2.17-.19l.25.19c.38.39.25,1,.21,1.51-.08.34-.16.67-.24,1q.64-.06,1.3-.07l0,0a.39.39,0,0,1,.47,0q.68,0,1.35.08c-.1-.41-.19-.83-.26-1.25a1.35,1.35,0,0,1,.25-1.2,4,4,0,0,1,2.22-.16l.43.06a4.54,4.54,0,0,1,1.21.46l.16.27c.2.5-.15,1-.38,1.48l-.66.91q.62.18,1.21.41l.11-.08a.4.4,0,0,1,.45.31q.6.26,1.17.57c.06-.44.14-.89.24-1.32s.26-.86.69-1a2.87,2.87,0,0,1,1.57.42,7.58,7.58,0,0,1,1.78,1.48l0,.31c0,.54-.53.89-.92,1.22l-.92.56q.5.41,1,.86l.08,0a.39.39,0,0,1,.3.39q.47.47.89,1,.33-.55.7-1.08c.27-.33.57-.69,1-.67a3.14,3.14,0,0,1,1.41,1.12,7,7,0,0,1,1,1.94l-.08.31c-.21.5-.83.62-1.31.77l-1,.16q.31.58.58,1.18h0a.39.39,0,0,1,.15.41q.26.63.46,1.29c.33-.24.67-.48,1-.7a1.35,1.35,0,0,1,1.2-.23,3.62,3.62,0,0,1,.95,1.83,6,6,0,0,1,.14,1.9"/></svg>